# xmcd
#
# Track frame offsets: 
#        150
#        12000
#        34245
#        48768
#        64162
#        85923
#        99290
#        117193
#
# Disc length: 1694 seconds
#
# Revision: 0
# Processed by: cddbd v1.5.2PL0 Copyright (c) Steve Scherf et al.
# Submitted via: ExactAudioCopy v0.99pb4
#
DISCID=57069c08
DTITLE=Various Artist - Rockin' the Country
DYEAR=1995
DGENRE=Corporate Country
TTITLE0=Stand On It
TTITLE1=Tougher Than the Rest
TTITLE2=Heartache
TTITLE3=We Just Disagree
TTITLE4=True Believer
TTITLE5=One Less Set of Footsteps
TTITLE6=Sorry Seems to Be the Hardest Word
TTITLE7=I'm Down
EXTD=
EXTT0=
EXTT1=
EXTT2=
EXTT3=
EXTT4=
EXTT5=
EXTT6=
EXTT7=
PLAYORDER=
